<?xml version="1.0" encoding="utf-8"?>
<!-- Generator: Adobe Illustrator 16.0.0, SVG Export Plug-In . SVG Version: 6.00 Build 0)  -->
<!DOCTYPE svg PUBLIC "-//W3C//DTD SVG 1.1//EN" "http://www.w3.org/Graphics/SVG/1.1/DTD/svg11.dtd">
<svg version="1.1" id="图层_3" xmlns="http://www.w3.org/2000/svg" xmlns:xlink="http://www.w3.org/1999/xlink" x="0px" y="0px"
	 width="192px" height="192px" viewBox="0 0 192 192" enable-background="new 0 0 192 192" xml:space="preserve">
<path fill="#FBBC05" d="M160.75,20H31.25C25.034,20,20,25.035,20,31.25v129.5c0,6.216,5.034,11.25,11.25,11.25h129.5
	c6.216,0,11.25-5.034,11.25-11.25V31.25C172,25.035,166.966,20,160.75,20z"/>
<g>
	<path fill="#FFFFFF" d="M124.027,106.58H68.031c-2.617,0-4.801,2.188-4.801,4.803c0,2.613,2.188,4.801,4.801,4.801h55.997
		c2.617,0,4.805-2.189,4.805-4.801C128.836,108.707,126.645,106.58,124.027,106.58L124.027,106.58z"/>
	<path fill="#FFFFFF" d="M124.027,80.195H68.031c-2.617,0-4.801,2.184-4.801,4.801c0,2.613,2.188,4.801,4.801,4.801h55.997
		c2.617,0,4.805-2.188,4.805-4.801C128.836,82.379,126.645,80.195,124.027,80.195L124.027,80.195z"/>
</g>
</svg>
