<?xml version="1.0" encoding="utf-8"?>
<!-- Generator: Adobe Illustrator 16.0.0, SVG Export Plug-In . SVG Version: 6.00 Build 0)  -->
<!DOCTYPE svg PUBLIC "-//W3C//DTD SVG 1.1//EN" "http://www.w3.org/Graphics/SVG/1.1/DTD/svg11.dtd">
<svg version="1.1" id="图层_3" xmlns="http://www.w3.org/2000/svg" xmlns:xlink="http://www.w3.org/1999/xlink" x="0px" y="0px"
	 width="192px" height="192px" viewBox="0 0 192 192" enable-background="new 0 0 192 192" xml:space="preserve">
<line fill="none" x1="18.797" y1="72.809" x2="178.266" y2="72.809"/>
<path fill="none" d="M47.532,75.53h51v51h-51V75.53L47.532,75.53z"/>
<path fill="#EA4335" d="M160.75,20H31.25C25.034,20,20,25.035,20,31.25v129.5c0,6.216,5.034,11.25,11.25,11.25h129.5
	c6.216,0,11.25-5.034,11.25-11.25V31.25C172,25.035,166.966,20,160.75,20z"/>
<g>
	<path fill="#FFFFFF" d="M55.473,98.115l2.272-22.017h21.963v6.329H64.209l-1.083,9.196c0.739-0.541,1.668-0.987,2.786-1.339
		c1.118-0.352,2.335-0.545,3.651-0.582c3.661-0.054,6.496,1.078,8.506,3.395c2.011,2.316,3.016,5.567,3.016,9.751
		c0,3.857-1.091,7.022-3.273,9.493c-2.182,2.471-5.518,3.705-10.007,3.705c-3.625,0-6.726-0.96-9.304-2.88
		c-2.58-1.921-3.823-4.558-3.733-7.911l0.054-0.137l7.6-0.352c0,1.641,0.496,2.923,1.488,3.842c0.992,0.92,2.29,1.379,3.895,1.379
		c1.875,0,3.241-0.611,4.097-1.84c0.856-1.225,1.285-2.975,1.285-5.246s-0.469-4.079-1.406-5.424
		c-0.938-1.343-2.327-2.014-4.166-2.014c-1.515,0-2.673,0.279-3.475,0.838c-0.803,0.559-1.375,1.316-1.718,2.272L55.473,98.115z"/>
	<path fill="#FFFFFF" d="M102.264,93.517h9.738v6.816h-9.738v11.196h-7.465v-11.196h-9.791v-6.816h9.791V82.86h7.465V93.517z"/>
	<path fill="#FFFFFF" d="M135.235,115.479h-7.872v-32.51h-8.141v-6.032l16.013-1.406V115.479z"/>
</g>
</svg>
