<?xml version="1.0" encoding="utf-8"?>
<!-- Generator: Adobe Illustrator 16.0.0, SVG Export Plug-In . SVG Version: 6.00 Build 0)  -->
<!DOCTYPE svg PUBLIC "-//W3C//DTD SVG 1.1//EN" "http://www.w3.org/Graphics/SVG/1.1/DTD/svg11.dtd">
<svg version="1.1" id="图层_3" xmlns="http://www.w3.org/2000/svg" xmlns:xlink="http://www.w3.org/1999/xlink" x="0px" y="0px"
	 width="192px" height="192px" viewBox="0 0 192 192" enable-background="new 0 0 192 192" xml:space="preserve">
<g>
	<path fill="#FBBC05" d="M96,171.75c-47.382,0-67.255-16.946-67.255-51.776c0-28.854,22.537-58.967,49.855-68.467h34.799
		c27.321,9.5,49.855,39.612,49.855,68.467C163.255,154.804,143.382,171.75,96,171.75z"/>
	<path fill="#FBBC05" d="M123.188,28.653l-1.202,1.504c-0.027,0.028-0.046,0.062-0.071,0.09l-10.174,12.717H77.398L67.244,30.268
		c-0.075-0.072-0.125-0.162-0.195-0.24l-1.1-1.375l0.193-0.389c-0.093-0.352-0.218-0.695-0.218-1.076
		c0-1.823,1.146-3.362,2.75-3.988l0.136-0.271c0,0,14.069-2.814,25.758-2.862c12.232-0.05,25.756,2.862,25.756,2.862l0.14,0.274
		c1.595,0.632,2.73,2.168,2.73,3.985c0,0.374-0.122,0.707-0.213,1.051L123.188,28.653L123.188,28.653z"/>
</g>
<path fill="none" d="M47.532,75.53h51v51h-51V75.53L47.532,75.53z"/>
<path fill="#FFFFFF" d="M97.297,110.443c-7.543-1.961-9.968-3.986-9.968-7.143c0-3.621,3.356-6.146,8.97-6.146
	c5.912,0,8.104,2.825,8.307,6.978h7.343c-0.231-5.714-3.723-10.964-10.665-12.658v-7.276h-9.968v7.177
	c-6.445,1.395-11.627,5.58-11.627,11.993c0,7.674,6.345,11.495,15.615,13.723c8.307,1.993,9.968,4.916,9.968,8.009
	c0,2.288-1.629,5.942-8.972,5.942c-6.844,0-9.535-3.057-9.9-6.976h-7.31c0.399,7.273,5.848,11.361,12.227,12.724V144h9.968v-7.144
	c6.479-1.229,11.627-4.984,11.627-11.794C112.91,115.627,104.839,112.404,97.297,110.443z"/>
</svg>
