<?xml version="1.0" encoding="utf-8"?>
<!-- Generator: Adobe Illustrator 16.0.0, SVG Export Plug-In . SVG Version: 6.00 Build 0)  -->
<!DOCTYPE svg PUBLIC "-//W3C//DTD SVG 1.1//EN" "http://www.w3.org/Graphics/SVG/1.1/DTD/svg11.dtd">
<svg version="1.1" id="图层_3" xmlns="http://www.w3.org/2000/svg" xmlns:xlink="http://www.w3.org/1999/xlink" x="0px" y="0px"
	 width="192px" height="192px" viewBox="0 0 192 192" enable-background="new 0 0 192 192" xml:space="preserve">
<line fill="none" x1="18.797" y1="72.809" x2="178.266" y2="72.809"/>
<path fill="none" d="M47.532,75.53h51v51h-51V75.53L47.532,75.53z"/>
<line fill="none" x1="17.797" y1="78.437" x2="177.267" y2="78.437"/>
<path fill="#34A853" d="M95.491,17L31.317,45.522v42.782c0,39.573,27.381,76.586,64.174,85.567
	c36.795-8.98,64.178-45.994,64.178-85.567V45.522L95.491,17z"/>
<path fill="#FFFFFF" d="M97.297,89.444c-7.543-1.961-9.968-3.986-9.968-7.144c0-3.621,3.356-6.146,8.97-6.146
	c5.912,0,8.104,2.825,8.307,6.978h7.343c-0.231-5.714-3.723-10.964-10.665-12.658v-7.276h-9.968v7.177
	c-6.445,1.395-11.627,5.58-11.627,11.993c0,7.674,6.345,11.495,15.615,13.723c8.307,1.993,9.968,4.916,9.968,8.009
	c0,2.288-1.629,5.942-8.972,5.942c-6.844,0-9.535-3.057-9.9-6.976h-7.31c0.399,7.273,5.848,11.361,12.227,12.724V123h9.968v-7.144
	c6.479-1.229,11.627-4.984,11.627-11.794C112.91,94.627,104.839,91.405,97.297,89.444z"/>
</svg>
