<?xml version="1.0" encoding="utf-8"?>
<!-- Generator: Adobe Illustrator 16.0.0, SVG Export Plug-In . SVG Version: 6.00 Build 0)  -->
<!DOCTYPE svg PUBLIC "-//W3C//DTD SVG 1.1//EN" "http://www.w3.org/Graphics/SVG/1.1/DTD/svg11.dtd">
<svg version="1.1" id="图层_3" xmlns="http://www.w3.org/2000/svg" xmlns:xlink="http://www.w3.org/1999/xlink" x="0px" y="0px"
	 width="192px" height="192px" viewBox="0 0 192 192" enable-background="new 0 0 192 192" xml:space="preserve">
<path fill="#EA4335" d="M160.75,20H31.25C25.034,20,20,25.035,20,31.25v129.5c0,6.216,5.034,11.25,11.25,11.25h129.5
	c6.216,0,11.25-5.034,11.25-11.25V31.25C172,25.035,166.966,20,160.75,20z"/>
<path fill="#FFFFFF" d="M68.934,68.729c1.346-1.172,4.002-3.518,5.347-4.69c7.625,8.935,15.007,18.11,22.561,27.148
	c7.556-9.004,14.903-18.213,22.562-27.148c1.38,1.241,4.141,3.69,5.555,4.933c-6.693,8.21-13.454,16.317-20.147,24.458
	c7.039-0.035,14.074-0.069,21.147,0c-0.036,1.863-0.104,5.622-0.104,7.485c-8.417,0-16.798,0.034-25.217,0.034
	c0,2.692,0.034,8.143,0.034,10.833c8.419-0.035,16.834-0.035,25.251,0.068v7.417c-8.417,0.104-16.832,0.104-25.251,0.069
	c-0.034,5.104-0.034,10.211-0.068,15.316h-7.486c-0.034-5.105-0.034-10.212-0.069-15.316c-8.452,0.034-16.869,0.034-25.321-0.069
	l0.035-7.417c8.417-0.104,16.868-0.104,25.286-0.068c0.035-2.69,0.035-8.106,0.035-10.833c-8.417,0-16.834-0.034-25.252-0.034
	c-0.034-1.863-0.068-5.622-0.068-7.485c7.037-0.069,14.074-0.035,21.146,0.034C82.215,85.219,75.178,77.285,68.934,68.729z"/>
</svg>
