<?xml version="1.0" encoding="utf-8"?>
<!-- Generator: Adobe Illustrator 16.0.0, SVG Export Plug-In . SVG Version: 6.00 Build 0)  -->
<!DOCTYPE svg PUBLIC "-//W3C//DTD SVG 1.1//EN" "http://www.w3.org/Graphics/SVG/1.1/DTD/svg11.dtd">
<svg version="1.1" id="图层_3" xmlns="http://www.w3.org/2000/svg" xmlns:xlink="http://www.w3.org/1999/xlink" x="0px" y="0px"
	 width="192px" height="192px" viewBox="0 0 192 192" enable-background="new 0 0 192 192" xml:space="preserve">
<path fill="none" d="M47.532,75.53h51v51h-51V75.53L47.532,75.53z"/>
<path fill="#EA4335" d="M79.37,90.583c0-5.984,4.818-10.833,10.833-10.833h70.413c5.986,0,10.834,4.82,10.834,10.833v70.413
	c0,5.986-4.818,10.834-10.834,10.834H90.203c-5.985,0-10.833-4.822-10.833-10.834V90.583z"/>
<path fill="#FBBC05" d="M19.79,31.003c0-5.985,4.818-10.833,10.833-10.833h70.414c5.986,0,10.834,4.821,10.834,10.833v70.413
	c0,5.986-4.818,10.834-10.834,10.834H30.623c-5.985,0-10.833-4.822-10.833-10.834V31.003z"/>
<path fill="#FFFFFF" d="M109.883,109.979c0.829-0.722,2.464-2.164,3.291-2.885c4.69,5.497,9.233,11.142,13.881,16.702
	c4.647-5.539,9.168-11.205,13.881-16.702c0.849,0.763,2.547,2.27,3.417,3.034c-4.117,5.052-8.277,10.039-12.395,15.048
	c4.331-0.021,8.659-0.041,13.01,0c-0.021,1.147-0.063,3.459-0.063,4.605c-5.18,0-10.335,0.021-15.515,0.021
	c0,1.657,0.021,5.01,0.021,6.666c5.181-0.022,10.356-0.022,15.536,0.042v4.562c-5.18,0.065-10.355,0.065-15.536,0.043
	c-0.021,3.141-0.021,6.282-0.042,9.423h-4.605c-0.021-3.141-0.021-6.282-0.042-9.423c-5.201,0.021-10.378,0.021-15.579-0.043
	l0.022-4.562c5.179-0.065,10.377-0.065,15.557-0.042c0.021-1.656,0.021-4.988,0.021-6.666c-5.177,0-10.355-0.021-15.535-0.021
	c-0.021-1.146-0.042-3.458-0.042-4.605c4.328-0.041,8.658-0.021,13.011,0.021C118.055,120.126,113.726,115.245,109.883,109.979z"/>
<path fill="#FFFFFF" d="M68.313,65.36c-5.66-1.47-7.479-2.99-7.479-5.358c0-2.718,2.518-4.612,6.731-4.612
	c4.436,0,6.082,2.119,6.232,5.235h5.509c-0.173-4.288-2.792-8.227-8.001-9.498v-5.459h-7.479v5.384
	c-4.835,1.048-8.726,4.188-8.726,9c0,5.758,4.763,8.625,11.717,10.296c6.232,1.496,7.479,3.689,7.479,6.009
	c0,1.718-1.222,4.459-6.73,4.459c-5.135,0-7.155-2.293-7.428-5.234h-5.485c0.298,5.458,4.388,8.525,9.174,9.548v5.409h7.479v-5.36
	c4.862-0.921,8.725-3.739,8.725-8.85C80.029,69.25,73.972,66.832,68.313,65.36z"/>
</svg>
