<?xml version="1.0" encoding="utf-8"?>
<!-- Generator: Adobe Illustrator 16.0.0, SVG Export Plug-In . SVG Version: 6.00 Build 0)  -->
<!DOCTYPE svg PUBLIC "-//W3C//DTD SVG 1.1//EN" "http://www.w3.org/Graphics/SVG/1.1/DTD/svg11.dtd">
<svg version="1.1" id="图层_3" xmlns="http://www.w3.org/2000/svg" xmlns:xlink="http://www.w3.org/1999/xlink" x="0px" y="0px"
	 width="192px" height="192px" viewBox="0 0 192 192" enable-background="new 0 0 192 192" xml:space="preserve">
<path fill="#FBBC05" d="M99.808,85.384c-22.165-5.76-29.293-11.713-29.293-20.992c0-10.641,9.864-18.063,26.364-18.063
	c17.374,0,23.819,8.301,24.41,20.505h21.579c-0.679-16.792-10.938-32.219-31.343-37.201V8.25H82.233v21.091
	c-18.941,4.1-34.173,16.4-34.173,35.246c0,22.556,18.651,33.784,45.891,40.33c24.411,5.854,29.293,14.445,29.293,23.533
	c0,6.73-4.787,17.468-26.365,17.468c-20.114,0-28.023-8.983-29.096-20.501H46.301c1.172,21.378,17.187,33.391,35.932,37.396V184
	h29.292v-20.995c19.041-3.605,34.174-14.646,34.174-34.66C145.699,100.616,121.976,91.149,99.808,85.384z"/>
</svg>
