<?xml version="1.0" encoding="utf-8"?>
<!-- Generator: Adobe Illustrator 16.0.0, SVG Export Plug-In . SVG Version: 6.00 Build 0)  -->
<!DOCTYPE svg PUBLIC "-//W3C//DTD SVG 1.1//EN" "http://www.w3.org/Graphics/SVG/1.1/DTD/svg11.dtd">
<svg version="1.1" id="图层_3" xmlns="http://www.w3.org/2000/svg" xmlns:xlink="http://www.w3.org/1999/xlink" x="0px" y="0px"
	 width="192px" height="192px" viewBox="0 0 192 192" enable-background="new 0 0 192 192" xml:space="preserve">
<line fill="none" x1="18.797" y1="72.809" x2="178.266" y2="72.809"/>
<path fill="none" d="M47.532,75.53h51v51h-51V75.53L47.532,75.53z"/>
<g>
	<path fill="#FBBC05" d="M96.446,20C84.14,20,74.116,30.024,74.116,42.332S84.14,64.662,96.446,64.662
		c12.324,0,22.333-10.023,22.333-22.331C118.779,30.023,108.753,20,96.446,20z M96.446,51.429c-5.012,0-9.098-4.086-9.098-9.098
		c0-5.013,4.085-9.098,9.098-9.098c5.028,0,9.098,4.085,9.098,9.098C105.544,47.343,101.458,51.429,96.446,51.429z"/>
	<path fill="#FBBC05" d="M89.83,52.488h13.233v112.497H89.83V52.488z"/>
	<path fill="#FBBC05" d="M64.272,65.704h64.364v13.233H64.272V65.704z"/>
	<path fill="#FBBC05" d="M96.446,172c-33.249,0-60.31-27.046-60.31-60.294h13.232c0,25.953,21.124,47.062,47.079,47.062
		c25.953,0,47.077-21.108,47.077-47.062h13.232C156.772,144.954,129.711,172,96.446,172L96.446,172z"/>
	<path fill="#FBBC05" d="M27.12,135.146l-9.345-9.378l27.376-27.261l26.996,26.233l-9.231,9.494l-17.649-17.17L27.12,135.146z"/>
	<path fill="#FBBC05" d="M129.199,135.146l-9.331-9.378l27.363-27.261l26.994,26.233l-9.229,9.494l-17.65-17.17L129.199,135.146z"/>
</g>
</svg>
