<?xml version="1.0" encoding="utf-8"?>
<!-- Generator: Adobe Illustrator 16.0.0, SVG Export Plug-In . SVG Version: 6.00 Build 0)  -->
<!DOCTYPE svg PUBLIC "-//W3C//DTD SVG 1.1//EN" "http://www.w3.org/Graphics/SVG/1.1/DTD/svg11.dtd">
<svg version="1.1" id="图层_3" xmlns="http://www.w3.org/2000/svg" xmlns:xlink="http://www.w3.org/1999/xlink" x="0px" y="0px"
	 width="192px" height="192px" viewBox="0 0 192 192" enable-background="new 0 0 192 192" xml:space="preserve">
<path fill="#4E4E4E" d="M96.205,29.273c21.813,0,43.627-0.005,65.441,0.002c7.524,0.002,10.104,2.547,10.105,10.021
	c0.004,37.54-0.002,75.079-0.023,112.619c-0.004,7.567-2.505,10.109-9.979,10.111c-44.008,0.016-88.017,0.014-132.026,0.002
	c-6.965-0.002-9.695-2.662-9.702-9.638c-0.029-37.921-0.031-75.843,0.004-113.764c0.006-6.719,2.75-9.338,9.594-9.345
	C51.815,29.258,74.009,29.274,96.205,29.273L96.205,29.273z"/>
<polygon fill="#FFFFFF" points="67.617,126.572 29.926,126.572 29.926,152.16 67.617,152.16 67.617,126.572 "/>
<polygon fill="#FFFFFF" points="114.647,152.308 114.647,126.692 77.171,126.692 77.171,152.308 114.647,152.308 "/>
<polygon fill="#FFFFFF" points="124.134,152.104 161.85,152.104 161.85,126.622 124.134,126.622 124.134,152.104 "/>
<polygon fill="#FFFFFF" points="29.991,92.227 29.991,117.587 67.511,117.587 67.511,92.227 29.991,92.227 "/>
<path fill="#FFFFFF" d="M124.1,117.92c12.299,0,24.166,0.026,36.032-0.078c0.641-0.007,1.814-1.127,1.825-1.743
	c0.123-7.92,0.081-15.843,0.081-23.729H124.1C124.1,100.921,124.1,109.12,124.1,117.92L124.1,117.92z"/>
<polygon fill="#FFFFFF" points="76.994,117.627 114.694,117.627 114.694,92.346 76.994,92.346 76.994,117.627 "/>
<path fill="#FFFFFF" d="M67.543,83.511V58.009H29.695c0,7.941-0.078,15.528,0.11,23.106c0.02,0.817,1.56,2.281,2.407,2.292
	C43.86,83.561,55.511,83.511,67.543,83.511L67.543,83.511z"/>
<polygon fill="#FFFFFF" points="77.084,83.164 114.604,83.164 114.604,57.93 77.084,57.93 77.084,83.164 "/>
<polygon fill="#FFFFFF" points="161.771,83.271 161.771,57.893 124.183,57.893 124.183,83.271 161.771,83.271 "/>
</svg>
